<?xml version="1.0" encoding="utf-8"?>
<!-- Svg Vector Icons : http://www.onlinewebfonts.com/icon -->
<!DOCTYPE svg PUBLIC "-//W3C//DTD SVG 1.1//EN" "http://www.w3.org/Graphics/SVG/1.1/DTD/svg11.dtd">
<svg version="1.1" xmlns="http://www.w3.org/2000/svg" xmlns:xlink="http://www.w3.org/1999/xlink" x="0px" y="0px" viewBox="0 0 256 256" enable-background="new 0 0 256 256" xml:space="preserve">
<metadata> Svg Vector Icons : http://www.onlinewebfonts.com/icon </metadata>
<g><g><g><path fill="#000000" d="M12.9,49.9C9.8,51.2,10,45.4,10,128c0,82.8-0.2,76.8,3,78.2c2.4,1,227.6,1,230,0c3.2-1.4,3,4.7,3-78.2c0-82.8,0.2-76.8-3-78.2C240.7,48.8,15.2,48.9,12.9,49.9z M236.3,69v9.7H128H19.7V69v-9.7H128h108.3V69z M89.2,103.4l-0.1,14.7H54.5H19.9l-0.1-14.7l-0.1-14.6h34.8h34.8L89.2,103.4z M157.5,103.6v14.8h-29.3H99v-14.8V88.8h29.3h29.3V103.6z M236.2,103.4l-0.1,14.7h-34.3h-34.3l-0.1-14.7l-0.1-14.6h34.6h34.6L236.2,103.4z M89.3,142.7v14.8H54.5H19.7v-14.8V128h34.8h34.8L89.3,142.7L89.3,142.7z M157.5,142.7v14.8h-29.3H99v-14.8V128h29.3h29.3V142.7z M236.3,142.7v14.8h-34.6h-34.6v-14.8V128h34.6h34.6V142.7z M89.2,182l0.1,14.7H54.5H19.7v-14.4c0-8,0.1-14.6,0.3-14.8c0.1-0.2,15.8-0.3,34.7-0.2l34.4,0.1L89.2,182z M157.5,181.9v14.8h-29.3H99v-14.8v-14.8h29.3h29.3V181.9z M236.2,182l0.1,14.7h-34.6h-34.6v-14.4c0-8,0.1-14.6,0.3-14.8c0.1-0.2,15.7-0.3,34.4-0.2l34.2,0.1L236.2,182z"/></g></g></g>
</svg>